<?xml version="1.0" encoding="UTF-8"?>
<svg id="BACKGROUND" xmlns="http://www.w3.org/2000/svg" viewBox="0 0 1291.91 375.81">
  <defs>
    <style>
      .cls-1 {
        fill: white;
      }
    </style>
  </defs>
  <g>
    <polygon class="cls-1" points="1184.61 103.42 1164.83 137.56 1125.58 137.48 1125.48 137.31 1125.38 137.49 1086.13 137.42 1086.03 137.25 1006.8 273.94 967.57 273.87 967.46 273.7 987.14 239.74 987.34 239.75 987.24 239.57 1006.92 205.62 1007.12 205.61 1007.02 205.44 1026.71 171.48 1026.9 171.48 1026.81 171.31 1046.49 137.35 1046.69 137.35 1046.59 137.18 1046.49 137.35 1007.24 137.29 1007.23 137.29 1007.13 137.12 1007.03 137.29 967.79 137.22 967.69 137.05 987.37 103.1 987.57 103.09 987.58 103.09 1026.82 103.16 1027.02 103.16 1066.27 103.23 1066.47 103.23 1066.47 103.24 1105.91 103.29 1145.37 103.37 1184.61 103.42"/>
    <path class="cls-1" d="M967.56,274.12c-.09,0-.17-.05-.21-.12l-.11-.18c-.05-.08-.05-.18,0-.25l19.68-33.96s.04-.05.06-.07c0-.03.01-.06.03-.09l19.68-33.96s.04-.06.07-.08c0-.03.01-.07.03-.1l19.68-33.96s.04-.06.07-.08c0-.03.01-.07.03-.1l19.47-33.58-38.82-.06s-.07,0-.11-.02c-.03.01-.06.02-.1.02l-39.25-.07h0c-.09,0-.17-.05-.22-.13l-.1-.17c-.04-.08-.04-.17,0-.25l19.68-33.95c.04-.07.12-.12.2-.12h.2s.04,0,.06,0l39.2.07h.21s39.44.07,39.44.07c.02,0,.03,0,.05,0l118.09.19h0c.09,0,.17.05.21.13.04.08.04.17,0,.25l-19.78,34.13c-.04.08-.13.12-.22.12l-39.25-.07s-.07,0-.1-.02c-.03.01-.07.02-.1.02l-39.25-.06s-.03,0-.05,0l-79.06,136.4c-.04.08-.13.12-.22.12l-39.24-.07h0ZM987.29,239.99l-19.49,33.63,38.87.07,79.16-136.56c.04-.08.13-.13.22-.12h0c.09,0,.17.05.22.13l.02.04,38.96.06.03-.05c.04-.08.13-.13.22-.13h0c.09,0,.17.05.21.13l.03.05,38.96.07,19.49-33.63-117.7-.19s-.03,0-.05,0h-.16s-39.25-.07-39.25-.07h-.21s-39.23-.07-39.23-.07c-.01,0-.03,0-.04,0h-.02s-19.49,33.63-19.49,33.63l38.86.07.03-.05c.04-.08.13-.13.22-.13h0c.09,0,.17.05.21.13l.03.05,38.97.06.03-.05c.04-.08.13-.12.22-.12h0c.09,0,.17.05.22.13l.1.17c.04.08.04.17,0,.25-.04.08-.13.12-.22.12h-.05s-19.54,33.71-19.54,33.71l.03.05c.04.08.04.17,0,.25-.04.08-.13.12-.22.12h-.05s-19.54,33.71-19.54,33.71l.03.05c.04.08.04.17,0,.25s-.13.12-.21.12h-.05s-19.54,33.71-19.54,33.71l.03.05c.04.08.04.18,0,.25-.05.08-.13.13-.22.12h-.04Z"/>
  </g>
  <g>
    <path class="cls-1" d="M718.9,237.64h-.2s.1-.17.1-.17l-19.56-34.03h-.2s.1-.17.1-.17l.1.17,39.25.07,59.35-102.38-39.25-.07h-.2s-39.25-.07-39.25-.07h-.21s-39.24-.06-39.24-.06h-.21s-19.68,33.95-19.68,33.95l.1.17h-.2s-19.68,33.96-19.68,33.96l.1.17h-.2s-19.68,33.96-19.68,33.96l.1.17h-.2s-19.68,33.96-19.68,33.96l.1.17h-.2s-19.68,33.95-19.68,33.95l.1.19,39.24.07,39.67-68.43.11.18,19.57,34.02.1.17,19.56,34.03.1.17h0s39.24.07,39.24.07l.11-.18-19.57-34.02ZM679.37,169.24l19.88-34.3.11.18,39.25.06.1-.16.1.17h-.19s-19.69,33.96-19.69,33.96l.1.17h-.2s-39.25-.07-39.25-.07h-.21Z"/>
    <path class="cls-1" d="M580.77,271.82c-.09,0-.17-.05-.22-.13l-.1-.19c-.04-.08-.04-.17,0-.24l19.68-33.95s.04-.06.07-.08c0-.03.01-.07.03-.1l19.68-33.96s.04-.06.07-.08c0-.03.01-.07.03-.1l19.68-33.95s.04-.06.07-.08c0-.04.01-.07.03-.1l19.68-33.95s.04-.06.07-.08c0-.04.01-.07.03-.1l19.68-33.95c.04-.08.13-.13.22-.12h0s.21,0,.21,0l118.13.2h0c.09,0,.17.05.21.13.04.08.04.17,0,.25l-59.35,102.38c-.04.08-.13.12-.22.12l-38.81-.07,19.35,33.65s.03.06.03.1c.03.02.05.05.07.07l19.57,34.02c.04.08.04.17,0,.25l-.1.18c-.04.08-.13.12-.22.12l-39.24-.07c-.05,0-.09-.01-.12-.03-.04-.02-.08-.06-.1-.1l-.1-.17-39.11-68.02-39.45,68.06c-.04.08-.13.12-.22.12l-39.24-.07h0ZM600.5,237.68l-19.5,33.64,38.87.07,39.6-68.31c.04-.08.13-.12.21-.12.08,0,.17.05.22.12l.11.18,39.26,68.28,38.87.07-19.38-33.7h-.05c-.11,0-.17-.05-.22-.12-.04-.08-.04-.17,0-.25l.03-.05-19.42-33.78h-.05s0,0,0,0c-.09,0-.17-.05-.21-.12-.04-.08-.04-.17,0-.25l.1-.17c.05-.08.14-.15.22-.13.09,0,.17.05.21.13l.03.05,38.96.07,59.06-101.88-117.7-.2h-.06s-19.53,33.7-19.53,33.7l.03.05c.04.08.04.17,0,.24-.04.08-.12.12-.21.13h-.07s-19.54,33.71-19.54,33.71l.03.05c.04.08.04.17,0,.24s-.12.12-.21.13h-.07s-19.54,33.71-19.54,33.71l.03.05c.04.08.04.17,0,.25-.04.08-.13.12-.21.12h-.05s-19.54,33.71-19.54,33.71l.03.05c.04.08.04.17,0,.25-.04.08-.13.12-.21.13h-.05ZM679.57,169.5h-.21c-.09,0-.17-.05-.21-.13-.04-.08-.04-.17,0-.25l19.88-34.3c.04-.08.13-.12.21-.12.08,0,.17.05.22.12l.03.06,38.97.06.02-.04c.05-.08.14-.12.22-.13.09,0,.17.05.21.13l.1.17c.04.08.04.18,0,.25-.05.08-.12.12-.22.12h-.04s-19.54,33.71-19.54,33.71l.03.05c.04.08.04.17,0,.25-.04.08-.13.12-.22.12h-.2s-39.25-.07-39.25-.07ZM699.3,135.36l-19.5,33.64,38.88.07s.01-.03.02-.05l19.47-33.59-38.82-.06s-.04,0-.06,0Z"/>
  </g>
  <g>
    <path class="cls-1" d="M285.21,100.24h-.21s-39.24-.07-39.24-.07h-.21s-39.24-.07-39.24-.07h-.21s-19.68,33.95-19.68,33.95l.11.18h-.21s-19.68,33.95-19.68,33.95l.1.17h-.2s-19.68,33.96-19.68,33.96l.1.17h-.2s-19.68,33.95-19.68,33.95l.1.17h-.2s-19.68,33.96-19.68,33.96l.11.18,39.24.07.1-.17.11.18,39.24.07.11-.18.11.18,39.25.07,98.91-170.64-39.25-.06ZM225.66,202.62l-19.68,33.96.1.17h-.2s-39.25-.07-39.25-.07h-.2s19.88-34.3,19.88-34.3l.1.17,39.25.07.1-.17.11.18h-.21ZM245.65,168.5h-.21s-39.24-.07-39.24-.07h-.21s19.88-34.3,19.88-34.3l.11.18,39.24.07.11-.18.11.18h-.21s-19.68,33.95-19.68,33.95l.11.18Z"/>
    <path class="cls-1" d="M107.41,271c-.09,0-.17-.05-.21-.12l-.11-.18c-.05-.08-.05-.17,0-.25l19.68-33.96s.04-.06.07-.08c0-.03.01-.07.03-.1l19.68-33.95s.04-.06.07-.08c0-.03.01-.07.03-.1l19.68-33.96s.04-.06.07-.08c0-.03.01-.07.03-.1l19.68-33.96s.04-.06.07-.08c0-.03.01-.07.03-.1l19.68-33.95c.04-.08.12-.12.21-.12h.21s39.24.06,39.24.06h.21s39.23.07,39.23.07h.21s39.25.07,39.25.07c.08,0,.17.05.22.13s.04.17,0,.25l-98.91,170.64c-.04.08-.13.12-.22.12l-39.25-.07s-.07,0-.1-.02c-.03.02-.07.03-.11.03l-39.24-.07s-.07,0-.11-.02c-.03.01-.06.02-.1.02l-39.24-.07h0ZM127.13,236.86l-19.5,33.64,38.87.07.03-.05c.04-.08.13-.12.21-.13.07,0,.17.05.22.12l.03.06,38.95.07.03-.06c.04-.08.13-.12.22-.12.1,0,.17.05.22.12l.03.06,38.96.07,98.62-170.15-38.82-.06h0s-.21,0-.21,0l-39.23-.07h-.21s-39.3-.07-39.3-.07l-19.53,33.7.03.05c.05.08.05.17,0,.25-.04.08-.13.13-.22.12h0s-.06,0-.06,0l-19.54,33.71.03.05c.04.08.04.17,0,.25-.04.08-.13.12-.21.13h-.05s-19.54,33.71-19.54,33.71l.03.05c.04.08.04.17,0,.25-.04.08-.13.12-.21.12h-.05s-19.53,33.7-19.53,33.7l.03.05c.04.08.04.17,0,.25-.04.08-.13.12-.21.13h-.05ZM166.43,236.93c-.09,0-.17-.05-.21-.12-.04-.08-.04-.17,0-.25l19.88-34.3c.04-.08.12-.1.22-.12.09,0,.17.05.21.13l.03.05,38.96.07.03-.05c.04-.08.13-.12.21-.13.09,0,.17.05.22.12l.11.18c.05.08.05.17,0,.25-.04.08-.13.13-.22.12h0s-.06,0-.06,0l-19.54,33.71.03.05c.04.08.04.17,0,.25-.04.08-.13.12-.21.13h-.2s-39.44-.07-39.44-.07h0ZM186.36,202.8l-19.5,33.64,38.87.07s.01-.03.02-.05l19.47-33.58-38.81-.07s-.03,0-.05,0ZM205.99,168.68c-.09,0-.17-.05-.21-.12-.05-.08-.05-.17,0-.25l19.88-34.3c.04-.08.13-.12.21-.12.08,0,.17.05.22.12l.03.06,38.95.07.03-.06c.04-.08.13-.12.21-.13h0c.09,0,.17.05.21.12l.11.18c.05.08.05.17,0,.25s-.12.13-.21.13h-.07s-19.53,33.7-19.53,33.7l.03.05c.05.08.05.17,0,.25-.04.08-.13.13-.22.12h0s-.21,0-.21,0l-39.44-.06h0ZM225.93,134.55l-19.49,33.63,38.88.07s.01-.03.02-.05l19.46-33.57-38.8-.07s-.04,0-.06,0Z"/>
  </g>
  <g>
    <polygon class="cls-1" points="482.25 100.58 383.34 271.23 344.09 271.16 343.99 270.97 363.67 237.02 363.87 237.03 363.77 236.85 383.45 202.9 383.66 202.89 383.55 202.72 383.45 202.9 344.21 202.83 344.11 202.65 304.44 271.09 265.2 271.02 265.09 270.85 284.78 236.89 284.97 236.89 284.88 236.72 304.56 202.76 304.77 202.76 304.66 202.59 324.34 168.63 324.54 168.63 324.44 168.46 344.12 134.51 344.33 134.51 344.22 134.33 363.91 100.38 364.11 100.38 403.35 100.45 363.79 168.7 363.99 168.7 403.23 168.77 403.44 168.77 403.34 168.59 423.01 134.64 423.22 134.64 423.11 134.47 442.79 100.52 443 100.51 482.25 100.58"/>
    <path class="cls-1" d="M265.2,271.27c-.09,0-.17-.05-.21-.12l-.11-.18c-.05-.08-.05-.18,0-.25l19.68-33.96s.04-.06.07-.08c0-.03.01-.07.03-.1l19.68-33.96s.04-.06.07-.08c0-.03.01-.07.03-.1l19.68-33.96s.04-.06.07-.08c0-.03.01-.07.03-.1l19.68-33.95s.04-.06.07-.08c0-.03.01-.07.03-.1l19.68-33.96c.04-.08.13-.13.22-.12h0s.21,0,.21,0l39.23.07c.11,0,.17.05.22.13.04.08.04.17,0,.25l-39.35,67.88,38.88.07s.01-.04.02-.06l19.68-33.95s.04-.06.07-.08c0-.03.01-.07.03-.1l19.68-33.95c.04-.08.12-.12.21-.12h.21s39.25.07,39.25.07h0c.09,0,.17.05.21.13.04.08.04.17,0,.25l-98.91,170.64c-.04.08-.13.12-.22.12l-39.25-.07h0c-.09,0-.17-.05-.22-.13l-.1-.19c-.04-.08-.04-.17,0-.24l19.68-33.95s.04-.06.07-.08c0-.03.01-.07.03-.1l19.46-33.57-38.8-.07s-.04,0-.06,0l-39.5,68.14c-.04.08-.13.12-.22.12l-39.24-.07h0ZM284.92,237.14l-19.5,33.64,38.87.07,39.6-68.32c.04-.08.13-.13.22-.12h0c.09,0,.17.05.22.13l.03.06,38.94.07.03-.06c.04-.08.13-.12.21-.12h0c.09,0,.17.05.21.12l.11.18c.05.08.05.17,0,.25s-.12.13-.21.13h-.07s-19.53,33.7-19.53,33.7l.03.05c.05.08.05.17,0,.25-.04.08-.13.13-.22.13h0s-.06,0-.06,0l-19.49,33.63,38.88.07,98.62-170.15-38.88-.07-19.53,33.7.03.05c.05.08.05.17,0,.25s-.13.11-.22.12h-.06s-19.53,33.7-19.53,33.7l.03.06c.04.08.04.17,0,.25-.05.08-.13.12-.22.12h0s-.21,0-.21,0l-39.23-.07h-.21c-.09,0-.17-.05-.21-.13-.04-.08-.04-.17,0-.25l39.34-67.88-38.8-.07h-.06s-19.54,33.7-19.54,33.7l.03.05c.05.08.05.17,0,.25-.04.08-.13.13-.22.12h0s-.06,0-.06,0l-19.53,33.7.03.05c.04.08.04.17,0,.25-.04.08-.13.12-.21.13h-.05s-19.54,33.71-19.54,33.71l.03.05c.05.08.05.17,0,.25-.04.08-.13.13-.22.13h0s-.06,0-.06,0l-19.54,33.71.03.05c.04.08.04.17,0,.25s-.13.12-.22.12h-.05Z"/>
  </g>
  <g>
    <path class="cls-1" d="M600.79,100.79h-.21s-39.24-.07-39.24-.07h-.21s-39.25-.07-39.25-.07h-.2s-19.68,33.96-19.68,33.96l.11.18h-.21s-19.68,33.95-19.68,33.95l.11.18h-.21s-19.68,33.95-19.68,33.95l.1.17h-.2s-19.68,33.95-19.68,33.95l.1.17h-.2s-19.68,33.96-19.68,33.96l.11.18,39.24.07,39.67-68.43.11.18,39.24.07.11-.18.1.19h-.21s-19.68,33.95-19.68,33.95l.11.18h-.21s-19.68,33.95-19.68,33.95l.1.19,39.25.06,98.91-170.64-39.25-.06ZM561.23,169.04h-.21s-39.24-.06-39.24-.06h-.21s19.88-34.31,19.88-34.31l.11.18,39.24.07.11-.18.11.18h-.21s-19.68,33.95-19.68,33.95l.11.18Z"/>
    <path class="cls-1" d="M422.99,271.54c-.09,0-.17-.05-.21-.12l-.11-.18c-.05-.08-.05-.17,0-.25l19.68-33.96s.04-.06.07-.08c0-.03.01-.07.03-.1l19.68-33.95s.04-.06.07-.08c0-.03.01-.07.03-.1l19.68-33.96s.04-.06.07-.08c0-.03.01-.07.03-.1l19.68-33.96s.04-.06.07-.08c0-.03.01-.07.03-.1l19.68-33.95c.04-.07.12-.12.2-.12h.2s39.26.06,39.26.06h.21s39.23.07,39.23.07h.21s39.25.07,39.25.07c.09-.02.17.05.22.13.04.08.04.17,0,.25l-98.91,170.64c-.04.08-.13.12-.22.12l-39.25-.06c-.09-.02-.18-.05-.22-.13l-.1-.19c-.04-.08-.04-.17,0-.25l19.68-33.95s.04-.06.07-.08c0-.04.01-.07.03-.1l19.46-33.57-38.8-.07s-.04,0-.06,0l-39.5,68.14c-.04.08-.13.12-.22.12l-39.24-.07h0ZM442.71,237.41l-19.5,33.64,38.87.07,39.6-68.31c.04-.08.13-.12.21-.12.08,0,.17.05.22.12l.03.06,38.95.07.03-.06c.09-.16.35-.15.44,0l.1.19c.04.08.04.17,0,.25-.05.08-.13.12-.22.12h0s-.06,0-.06,0l-19.53,33.69.03.05c.05.08.05.17,0,.25-.04.08-.12.13-.21.13h-.07s-19.5,33.64-19.5,33.64l38.88.06,98.62-170.15-38.82-.06h0s-.21,0-.21,0l-39.23-.07h-.21s-39.3-.07-39.3-.07l-19.54,33.7.03.05c.05.08.05.17,0,.25-.04.08-.13.13-.22.13h0s-.06,0-.06,0l-19.54,33.7.03.05c.05.08.05.17,0,.25-.04.08-.13.13-.22.12h0s-.06,0-.06,0l-19.54,33.71.03.05c.04.08.04.17,0,.25-.04.08-.13.12-.21.13h-.05s-19.54,33.7-19.54,33.7l.03.05c.04.08.04.17,0,.25-.04.08-.13.12-.21.13h-.05ZM521.78,169.23h-.21c-.09,0-.17-.05-.21-.13-.04-.08-.04-.17,0-.25l19.88-34.3c.04-.08.13-.12.21-.12.08,0,.17.05.22.12l.03.06,38.95.07.03-.06c.04-.08.13-.12.22-.12h0c.09,0,.17.05.21.12l.11.18c.05.08.05.17,0,.25-.04.08-.12.13-.21.13h-.07s-19.53,33.7-19.53,33.7l.03.05c.05.08.05.17,0,.25-.04.08-.12.13-.21.13h-.21s-39.24-.06-39.24-.06ZM541.5,135.09l-19.5,33.64,38.88.07s.01-.04.02-.06l19.46-33.57-38.8-.07s-.04,0-.06,0Z"/>
  </g>
  <g>
    <path class="cls-1" d="M933.7,105h-.21s-39.24-.07-39.24-.07h-.21s-39.25-.07-39.25-.07h-.2s-19.68,33.96-19.68,33.96l.11.18h-.21s-19.68,33.95-19.68,33.95l.11.18h-.21s-19.68,33.95-19.68,33.95l.1.17h-.2s-19.68,33.95-19.68,33.95l.1.17h-.2s-19.68,33.96-19.68,33.96l.11.18,39.24.07,39.67-68.43.11.18,39.24.07.11-.18.1.19h-.21s-19.68,33.95-19.68,33.95l.11.18h-.21s-19.68,33.95-19.68,33.95l.1.19,39.25.06,98.91-170.64-39.25-.06ZM894.14,173.25h-.21s-39.24-.06-39.24-.06h-.21s19.88-34.31,19.88-34.31l.11.18,39.24.07.11-.18.11.18h-.21s-19.68,33.95-19.68,33.95l.11.18Z"/>
    <path class="cls-1" d="M755.9,275.76c-.09,0-.17-.05-.21-.12l-.11-.18c-.05-.08-.05-.17,0-.25l19.68-33.96s.04-.06.07-.08c0-.03.01-.07.03-.1l19.68-33.95s.04-.06.07-.08c0-.03.01-.07.03-.1l19.68-33.96s.04-.06.07-.08c0-.03.01-.07.03-.1l19.68-33.96s.04-.06.07-.08c0-.03.01-.07.03-.1l19.68-33.95c.04-.07.12-.12.2-.12h.2s39.26.06,39.26.06h.21s39.23.07,39.23.07h.21s39.25.07,39.25.07c.09-.02.17.05.22.13.04.08.04.17,0,.25l-98.91,170.64c-.04.08-.13.12-.22.12l-39.25-.06c-.09-.02-.18-.05-.22-.13l-.1-.19c-.04-.08-.04-.17,0-.25l19.68-33.95s.04-.06.07-.08c0-.04.01-.07.03-.1l19.46-33.57-38.8-.07s-.04,0-.06,0l-39.5,68.14c-.04.08-.13.12-.22.12l-39.24-.07h0ZM775.62,241.62l-19.5,33.64,38.87.07,39.6-68.31c.04-.08.13-.12.21-.12.08,0,.17.05.22.12l.03.06,38.95.07.03-.06c.09-.16.35-.15.44,0l.1.19c.04.08.04.17,0,.25-.05.08-.13.12-.22.12h0s-.06,0-.06,0l-19.53,33.69.03.05c.05.08.05.17,0,.25-.04.08-.12.13-.21.13h-.07s-19.5,33.64-19.5,33.64l38.88.06,98.62-170.15-38.82-.06h0s-.21,0-.21,0l-39.23-.07h-.21s-39.3-.07-39.3-.07l-19.54,33.7.03.05c.05.08.05.17,0,.25-.04.08-.13.13-.22.13h0s-.06,0-.06,0l-19.54,33.7.03.05c.05.08.05.17,0,.25-.04.08-.13.13-.22.12h0s-.06,0-.06,0l-19.54,33.71.03.05c.04.08.04.17,0,.25-.04.08-.13.12-.21.13h-.05s-19.54,33.7-19.54,33.7l.03.05c.04.08.04.17,0,.25-.04.08-.13.12-.21.13h-.05ZM854.69,173.44h-.21c-.09,0-.17-.05-.21-.13-.04-.08-.04-.17,0-.25l19.88-34.3c.04-.08.13-.12.21-.12.08,0,.17.05.22.12l.03.06,38.95.07.03-.06c.04-.08.13-.12.22-.12h0c.09,0,.17.05.21.12l.11.18c.05.08.05.17,0,.25-.04.08-.12.13-.21.13h-.07s-19.53,33.7-19.53,33.7l.03.05c.05.08.05.17,0,.25-.04.08-.12.13-.21.13h-.21s-39.24-.06-39.24-.06ZM874.41,139.31l-19.5,33.64,38.88.07s.01-.04.02-.06l19.46-33.57-38.8-.07s-.04,0-.06,0Z"/>
  </g>
</svg>